# xmcd CD database file
# Copyright (C) 1993-1998 Ti Kan
#
# Track frame offsets:
#	182
#	11752
#	30010
#	44397
#	56655
#	66422
#	79865
#	94582
#	108370
#	122422
#	137000
#	148625
#	160985
#	173042
#	184252
#	195162
#	209725
#	221810
#	234150
#	245155
#
# Disc length: 3431 seconds
#
# Revision: 1
# Processed by: cddbd v1.4b41PL1 Copyright (c) Steve Scherf et al.
# Submitted via: CDValet v3.31 - Copyright (c) 1997 Greg Leichner
#
DISCID=180d6514
DTITLE=Various Artist - 60 Great Blues Recordings - Disc 1
DYEAR=1900
DGENRE=
TTITLE0=Jealous Woman/T Bone Walker
TTITLE1=I'm Sinking/Lowell Fulsom
TTITLE2=Rocks Is My Pillow/Roy Brown
TTITLE3=We Can't Make It/B B King
TTITLE4=Time To Say Goodbye/B B King
TTITLE5=T B Blues/Jimmy Witherspoon
TTITLE6=I'm Going Round In Circles/Jimmy Witherspoon
TTITLE7=Telephone Blues/George Smith
TTITLE8=Women In My Life/John Lee Hooker
TTITLE9=Heartache Baby/Joe Hill Louis
TTITLE10=When Night Falls/Goree Carter
TTITLE11=Sinful Woman/Elmore James
TTITLE12=That's All I Care/Floyd Dixon
TTITLE13=Hey Mr Porter/George Smith
TTITLE14=Good Lovin'/Bobby Bland
TTITLE15=Summertime Boogie Part 1/Saunders King
TTITLE16=I Ain't In The Mood/Helen Humes
TTITLE17=Central Avenue Blues/Pee Wee Crayton
TTITLE18=If That's The Way You Feel/Mickey Champion
TTITLE19=Gene's Guitar Blues/Gene Phillips
EXTD=Input by Bill (whall@netcomuk.co.uk)
EXTT0=
EXTT1=
EXTT2=
EXTT3=
EXTT4=
EXTT5=
EXTT6=
EXTT7=
EXTT8=
EXTT9=
EXTT10=
EXTT11=
EXTT12=
EXTT13=
EXTT14=
EXTT15=
EXTT16=
EXTT17=
EXTT18=
EXTT19=
PLAYORDER=
